<svg data-name="Layer 1" xmlns="http://www.w3.org/2000/svg" width="779" height="669"><ellipse cx="629" cy="638" rx="150" ry="31" fill="#f2f2f2"/><path d="M46 390l3 6-2 1-3-6zM417 223l4 9-2 1-6-13 2-1 2 4zm-9-16l-2 1-7-12 2-1 7 12zm18 38l4 13-2 1-4-13zm-33-61l-2 1-9-11 2-1 9 11zm40 88l2 14h-2l-2-13zm-59-109l-2 1-10-9 1-2 11 10zm62 137l1 14h-3v-14zm-84-155l-1 2-12-8 2-2 11 8zm84 183l-2 14h-2l1-14zM329 130l-2 2-12-6 1-2 13 6zm102 226l-3 13h-2l3-14zM303 118l-1 3-13-5 1-2 13 4zm120 265l-5 12h-2l5-13zM276 111v2l-14-3v-2l14 3zm136 297l-7 12-2-1 7-12zM248 106v3l-14-1v-2h14zm149 326l-9 11-2-2 9-11zM220 106v2l-13 2-1-3 14-1zm159 347l-11 10-1-2 10-10zM192 109l1 3-14 3v-2l13-4zm166 363l-12 8-1-2 11-8zM165 117l1 2-13 5-1-2 13-5zm169 370l-12 7-1-2 12-7zM141 130l-13 6-1-2 13-6zm-24 14l-11 8-2-2 11-8zm-22 17l-10 10-1-2 10-10zm-19 20l-8 11-2-1 8-11zm-16 23l-7 12-2-1 7-13zm-13 24l-5 13-2-1 5-13zm-10 26l-3 14-2-1 3-13zm-5 27l-2 14h-2l1-14zm-3 28l1 14h-2l-1-14zm2 28l2 13-2 1-2-14zm6 27l4 13-2 1-5-14zM308 498l1 2-7 2v-2l6-2z" fill="#e6e6e6"/><path d="M416 402c0-1-5-10-7-29-2-17-1-46 14-86 29-77-7-139-7-139l2-2c0 1 9 16 14 42a179 179 0 01-7 99c-29 77-7 113-7 113z" fill="#3f3d56"/><circle cx="405" cy="130" r="13" fill="#6c63ff"/><circle cx="446" cy="178" r="13" fill="#3f3d56"/><circle cx="418" cy="210" r="13" fill="#6c63ff"/><circle cx="452" cy="237" r="13" fill="#6c63ff"/><circle cx="408" cy="279" r="13" fill="#3f3d56"/><path d="M424 402s-13-32 26-56zM408 401s-6-34-52-33zM322 163a2 2 0 00-1 4 59 59 0 0117 15c23 28 15 72-17 97a79 79 0 01-50 17c21 6 47 1 67-15 32-25 40-69 18-97a60 60 0 00-34-21z" fill="#3f3d56"/><path d="M338 182c23 28 15 72-17 97a80 80 0 01-41 17 79 79 0 0049-17c32-25 40-69 18-97a59 59 0 00-25-19 2 2 0 00-1 4 59 59 0 0117 15zM239 138l13 23 13 23h-53l14-23 13-23z" fill="#6c63ff"/><path fill="#6c63ff" d="M287 138l13 23 14 23h-53l13-23 13-23z"/><path fill="#3f3d56" d="M237 150l9 14 8 14h-33l8-14 8-14zM287 150l8 14 8 14h-32l8-14 8-14zM356 301a93 93 0 11-33-71 93 93 0 0133 71z"/><path d="M323 230c-8 20-32 35-60 35s-52-15-60-35a93 93 0 01120 0z" opacity=".1"/><ellipse cx="263" cy="208" rx="62.5" ry="49.6" fill="#3f3d56"/><circle cx="233.7" cy="201.1" r="11.6" fill="#fff"/><circle cx="292.3" cy="201.1" r="11.6" fill="#fff"/><circle cx="233.7" cy="201.1" r="7.3" fill="#3f3d56"/><circle cx="292.3" cy="201.1" r="7.3" fill="#3f3d56"/><circle cx="250" cy="217.5" r="2.2" fill="#6c63ff"/><path d="M249 217c-4 2-7 6-11 7a21 21 0 01-14 1c-1-1-2 1-1 1a22 22 0 0014 0 21 21 0 006-3l7-5-1-1z" fill="#6c63ff"/><path d="M251 216a25 25 0 00-6 3 21 21 0 01-8 2 21 21 0 01-13-4l-1 1a22 22 0 0014 4 21 21 0 007-1c2-1 4-3 7-3v-2z" fill="#6c63ff"/><path d="M250 216c-4 3-5 7-8 10a21 21 0 01-14 5 1 1 0 000 1 22 22 0 0013-4 21 21 0 005-5l5-7h-1z" fill="#6c63ff"/><circle cx="272.7" cy="217.5" r="2.2" fill="#6c63ff"/><path d="M273 218l6 5a21 21 0 006 3 22 22 0 0014 0v-1a21 21 0 01-14-1c-4-1-7-5-12-7v1z" fill="#6c63ff"/><path d="M271 218l8 2a21 21 0 007 2 22 22 0 0013-4l-1-1a21 21 0 01-13 4 22 22 0 01-7-2 25 25 0 00-6-3l-1 2z" fill="#6c63ff"/><path d="M272 216l5 7a21 21 0 004 5 22 22 0 0014 4 1 1 0 000-1 21 21 0 01-14-5l-8-10h-1z" fill="#6c63ff"/><ellipse cx="233.7" cy="390.7" rx="17.2" ry="9.9" fill="#3f3d56"/><ellipse cx="292.3" cy="390.7" rx="17.2" ry="9.9" fill="#3f3d56"/><ellipse cx="261.3" cy="217" rx="14.2" ry="8.2" fill="#6c63ff"/><path d="M0 0v556h745V0zm96 7a12 12 0 11-12 12A12 12 0 0196 7zM24 31a12 12 0 1112-12 12 12 0 01-12 12zm24-12a12 12 0 1112 12 12 12 0 01-12-12zm413 381H60V102h401z" fill="#f2f2f2"/><path fill="#fff" d="M705 10h24v3h-24zM705 19h24v3h-24zM705 28h24v3h-24zM524 97h181v9H524zM524 128h181v9H524zM524 159h181v9H524zM524 190h181v9H524zM524 221h181v9H524zM524 252h181v9H524zM524 283h181v9H524zM524 314h181v9H524zM524 345h181v9H524zM524 376h181v9H524z"/><circle cx="84" cy="421" r="12" fill="#fff"/><circle cx="125" cy="421" r="12" fill="#fff"/><circle cx="166" cy="421" r="12" fill="#fff"/><path fill="#6c63ff" d="M524 480h181v51H524z"/><path d="M614 439l2 71 22 83s-5 14-2 18 19 9 19 9l-13-177z" fill="#2f2e41"/><path d="M661 610s8 17-3 19-61 6-58-3 41-17 41-17z" fill="#2f2e41"/><path d="M690 377s-9 44-14 51 3 61 3 61 12 78 6 90-4 8-3 15 2 12 0 18l-3 9v22s-29 10-33-5c0 0 6-10 4-17a90 90 0 01-3-23v-14l-31-116-7-42s2-43 9-47 72-2 72-2z" fill="#2f2e41"/><path d="M677 639s11 22-4 24-79 8-75-4 53-22 53-22z" fill="#2f2e41"/><circle cx="664.6" cy="155.4" r="27" fill="#ffb9b9"/><path d="M684 167l-1 35h-33s8-27 5-33 29-2 29-2z" fill="#ffb9b9"/><path d="M634 221s24-31 42-18 25 43 25 43l-4 85s-10 13-4 21 9 6 5 12-10 11-8 13-2 3-2 3l-72 2s2-3-4-11 1-19 0-23-3 1-3-8 25-119 25-119z" fill="#3f3d56"/><path d="M641 395s-1 17-12 19c-3 1-6 0-8-3a17 17 0 01-1-19l3-4z" fill="#ffb9b9"/><path d="M703 187v15 16c-1 1 2 7 1 11l-3 6-2 4s-20-42-36-32-29 13-29 13 9-47 69-33z" fill="#3f3d56"/><path d="M674 218s22 2 20 30 2 73 2 73-37 57-43 61-7 3-6 7 1 6-1 9a23 23 0 01-6 4s-21-8-19-15 11-17 11-17 16-26 17-30l3-6c2-2 7-10 7-14v-13l-5-68a20 20 0 015-16c3-3 8-6 15-5z" fill="#3f3d56"/><path d="M647 135a11 11 0 01-10-3c-3-2-4-7-2-10l8-5a69 69 0 0121-3l9 2 4 3 8 3a22 22 0 0113 13 26 26 0 011 6 33 33 0 01-3 17c-4 8-11 15-12 24-4-3-5-9-8-13a16 16 0 00-9-6 5 5 0 01-3-1 5 5 0 01-1-2l-1-14c-1-2-1-5-3-7a11 11 0 00-5-2 71 71 0 00-11-2" fill="#2f2e41"/><path d="M693 331l-38 49s35-29 38-49zM657 277v46l-22 33 18-37 4-42z" opacity=".1"/></svg>
